HIERARCHY
ROOT root
{
	OFFSET	0	13.1	24.9
	CHANNELS 6  Xposition Yposition Zposition Xrotation Yrotation Zrotation
	JOINT spine_1
	{
		OFFSET	0	9.99999	0
		CHANNELS 3  Xrotation Yrotation Zrotation
		JOINT spine_2
		{
			OFFSET	0	112	-10
			CHANNELS 3  Xrotation Yrotation Zrotation
			JOINT spine_3
			{
				OFFSET	0	206.5	19.3
				CHANNELS 3  Xrotation Yrotation Zrotation
				JOINT spine_4
				{
					OFFSET	0	110.4	14.6
					CHANNELS 3  Xrotation Yrotation Zrotation
					JOINT neck_1
					{
						OFFSET	0	71.8	-50.3
						CHANNELS 3  Xrotation Yrotation Zrotation
						JOINT neck_2
						{
							OFFSET	0	86.2	-25.8
							CHANNELS 3  Xrotation Yrotation Zrotation
							JOINT head_ee
							{
								OFFSET	0	179.8	-8.7
								CHANNELS 3  Xrotation Yrotation Zrotation
								End Site
								{
									OFFSET	1	0	0
								}
							}
						}
					}
					JOINT left_clavicle
					{
						OFFSET	-43.2	22.4	-70.8
						CHANNELS 3  Xrotation Yrotation Zrotation
						JOINT left_shoulder
						{
							OFFSET	-93.9	-5.79999	48.7
							CHANNELS 3  Xrotation Yrotation Zrotation
							JOINT left_elbow
							{
								OFFSET	-291.4	-30.8	15.2
								CHANNELS 3  Xrotation Yrotation Zrotation
								JOINT left_lowarm_twist
								{
									OFFSET	-110.7	-3.89999	13.6
									CHANNELS 3  Xrotation Yrotation Zrotation
									JOINT left_hand
									{
										OFFSET	-110.7	-3.89999	13.6
										CHANNELS 3  Xrotation Yrotation Zrotation
										JOINT left_ee
										{
											OFFSET	-80.8	-5.10001	12.1
											CHANNELS 3  Xrotation Yrotation Zrotation
											End Site
											{
												OFFSET	1	0	0
											}
										}
									}
								}
							}
						}
					}
					JOINT right_clavicle
					{
						OFFSET	43.2	22.4	-70.8
						CHANNELS 3  Xrotation Yrotation Zrotation
						JOINT right_shoulder
						{
							OFFSET	93.9	-5.79999	48.7
							CHANNELS 3  Xrotation Yrotation Zrotation
							JOINT right_elbow
							{
								OFFSET	291.4	-30.8	15.2
								CHANNELS 3  Xrotation Yrotation Zrotation
								JOINT right_lowarm_twist
								{
									OFFSET	110.7	-3.89999	13.6
									CHANNELS 3  Xrotation Yrotation Zrotation
									JOINT right_hand
									{
										OFFSET	110.7	-3.89999	13.6
										CHANNELS 3  Xrotation Yrotation Zrotation
										JOINT right_ee
										{
											OFFSET	80.8	-5.10001	12.1
											CHANNELS 3  Xrotation Yrotation Zrotation
											End Site
											{
												OFFSET	1	0	0
											}
										}
									}
								}
							}
						}
					}
				}
			}
		}
	}
	JOINT left_hip
	{
		OFFSET	-82.8	-127.5	0.300001
		CHANNELS 3  Xrotation Yrotation Zrotation
		JOINT left_knee
		{
			OFFSET	-28.2	-396.7	2.2
			CHANNELS 3  Xrotation Yrotation Zrotation
			JOINT left_ankle
			{
				OFFSET	-11.7	-411.3	35.4
				CHANNELS 3  Xrotation Yrotation Zrotation
				JOINT left_toes
				{
					OFFSET	0	-60	-88.6
					CHANNELS 3  Xrotation Yrotation Zrotation
					JOINT left_foot_ee
					{
						OFFSET	-22.5	-16.5	-42.2
						CHANNELS 3  Xrotation Yrotation Zrotation
						End Site
						{
							OFFSET	1	0	0
						}
					}
				}
			}
		}
	}
	JOINT right_hip
	{
		OFFSET	82.8	-127.5	0.300001
		CHANNELS 3  Xrotation Yrotation Zrotation
		JOINT right_knee
		{
			OFFSET	28.2	-396.7	2.2
			CHANNELS 3  Xrotation Yrotation Zrotation
			JOINT right_ankle
			{
				OFFSET	11.7	-411.3	35.4
				CHANNELS 3  Xrotation Yrotation Zrotation
				JOINT right_toes
				{
					OFFSET	0	-60	-88.6
					CHANNELS 3  Xrotation Yrotation Zrotation
					JOINT right_foot_ee
					{
						OFFSET	22.5	-16.5	-42.2
						CHANNELS 3  Xrotation Yrotation Zrotation
						End Site
						{
							OFFSET	1	0	0
						}
					}
				}
			}
		}
	}
}
MOTION
Frames: 9
Frame Time: 0.02
2800.94 716.97 -1473.77 7.43112228656 59.7962032323 -4.15967116755 -2.62792 -0.255658 -1.05303 -2.62733 -0.188137 -1.06716 -2.62298 0.0898709 -1.07988 -2.6246 -0.0817944 -1.08053 -22.8685 8.18226 6.4553 -23.0352 12.8465 9.8202 -0.0 0.0 -0.0 6.48995 16.9963 12.1646 6.23548 -18.6038 57.1452 3.80862 -62.0582 2.29162 -82.9218 -8.19119 5.23088 -3.21841 18.8321 -11.7969 -0.0 0.0 -0.0 9.96187 16.9644 -19.5117 -2.96792 -19.3911 -57.4037 0.350825 9.85907 -0.0302585 50.3027 0.990562 6.1454 -4.40426 -29.0492 12.4243 0.0 0.0 0.0 -20.1758 30.5828 -1.19396 -11.6659 0.301851 1.76179 36.8931 -9.73956 -4.7407 -27.2699 0.0 0.0 -0.0 0.0 -0.0 38.2758 32.5154 -14.2973 -13.0295 -0.313553 -1.97067 -15.1131 13.9073 -2.45485 -7.86041 0.0 0.0 0.0 0.0 0.0 
2779.46370784 719.031 -1488.15370671 8.15418256469 59.960301189 -4.95607133317 -2.74627 -0.075024 -0.853492 -2.74586 -0.0205641 -0.856536 -2.74508 0.200061 -0.833099 -2.74605 0.0659826 -0.854238 -19.0232 9.87058 5.17276 -19.2972 16.3092 8.81053 -0.0 0.0 -0.0 5.70144 16.8933 10.9077 3.63144 -18.9195 57.6017 3.61999 -60.8382 2.12592 -82.74 -8.1683 5.23447 -3.22402 19.3928 -11.5134 -0.0 0.0 -0.0 9.71773 17.2493 -18.9519 -2.05082 -20.0496 -59.5588 0.361069 10.1411 -0.0320374 53.6645 1.24346 6.4938 -4.29529 -29.0388 11.8301 0.0 0.0 0.0 -20.3569 30.1861 -1.42458 -13.9443 0.318617 2.11094 34.9 -7.90975 -4.51237 -27.2229 0.0 0.0 -0.0 0.0 -0.0 37.9264 31.556 -15.4228 -15.591 -0.322086 -2.36356 -12.4702 9.12648 -1.95899 -4.73204 0.0 0.0 0.0 0.0 0.0 
2763.2022697 719.615 -1498.43817952 7.58155883464 59.0901092037 -4.19959644369 -2.85009 0.0392317 -0.844224 -2.8497 0.0928705 -0.840018 -2.85068 0.306912 -0.787442 -2.85151 0.178703 -0.826027 -18.4648 11.0563 4.26206 -18.876 19.0155 8.38001 -0.0 0.0 -0.0 5.35203 16.9579 10.3496 2.12475 -18.6626 57.9183 3.39562 -59.2545 1.9315 -82.5542 -8.14489 5.23807 -3.3515 21.4867 -11.0842 -0.0 0.0 -0.0 9.63729 17.9493 -18.7311 0.196934 -20.0409 -60.3547 0.273307 7.71046 -0.0184177 56.5496 1.47656 6.78067 -4.27375 -28.7854 11.8794 0.0 0.0 0.0 -19.7881 29.497 -2.33357 -16.1575 0.321601 2.45048 31.8459 -4.88921 -4.15562 -27.0194 0.0 0.0 -0.0 0.0 -0.0 37.2699 31.4104 -16.2518 -16.258 -0.321425 -2.46589 -10.0501 8.6223 -1.56957 -3.39946 0.0 0.0 0.0 0.0 0.0 
2763.56844202 719.615 -1498.98947705 7.40138858244 58.2562072945 -3.98868308817 -2.85009 0.0392317 -0.844224 -2.8497 0.0928705 -0.840018 -2.85068 0.306912 -0.787442 -2.85151 0.178703 -0.826027 -18.4648 11.0563 4.26206 -18.876 19.0155 8.38001 -0.0 0.0 -0.0 5.35203 16.9579 10.3496 2.12475 -18.6626 57.9183 3.39562 -59.2545 1.9315 -82.5542 -8.14489 5.23807 -3.3515 21.4867 -11.0842 -0.0 0.0 -0.0 9.63729 17.9493 -18.7311 0.196934 -20.0409 -60.3547 0.273307 7.71046 -0.0184177 56.5496 1.47656 6.78067 -4.27375 -28.7854 11.8794 0.0 0.0 0.0 -19.7881 29.497 -2.33357 -16.1575 0.321601 2.45048 31.8459 -4.88921 -4.15562 -27.0194 0.0 0.0 -0.0 0.0 -0.0 37.2699 31.4104 -16.2518 -16.258 -0.321425 -2.46589 -10.0501 8.6223 -1.56957 -3.39946 0.0 0.0 0.0 0.0 0.0 
2719.69034077 725.732 -1519.7090625 10.1785504573 60.687255659 -7.44473079158 -2.99921 -0.0456436 -0.44335 -2.9991 -0.0173398 -0.445356 -2.99883 0.0995169 -0.434442 -2.99909 0.0296567 -0.444706 -16.4673 12.0977 4.67705 -16.8521 20.5723 8.78986 -0.0 0.0 -0.0 4.67416 18.4576 9.25956 -0.932686 -17.2435 60.7729 2.81161 -54.3121 1.44246 -83.3248 -8.2419 5.22265 -2.9964 21.9516 -8.71079 -0.0 0.0 -0.0 9.46212 17.5342 -18.3672 2.65436 -20.2995 -62.3474 0.327938 9.22733 -0.026464 61.8185 1.93848 7.27311 -3.83251 -28.8669 9.40278 0.0 0.0 0.0 -18.162 29.8956 -4.43876 -24.4473 0.216402 3.71702 24.7501 1.23639 -3.31659 -27.1554 0.0 0.0 -0.0 0.0 -0.0 33.0326 30.0222 -15.0593 -19.0431 -0.305797 -2.89289 -5.86413 7.41499 -0.903773 -0.0363627 0.0 0.0 0.0 0.0 0.0 
2720.80742665 725.732 -1521.63099954 9.76890894753 59.3432365354 -6.97182336054 -2.99921 -0.0456436 -0.44335 -2.9991 -0.0173398 -0.445356 -2.99883 0.0995169 -0.434442 -2.99909 0.0296567 -0.444706 -16.4673 12.0977 4.67705 -16.8521 20.5723 8.78986 -0.0 0.0 -0.0 4.67416 18.4576 9.25956 -0.932686 -17.2435 60.7729 2.81161 -54.3121 1.44246 -83.3248 -8.2419 5.22265 -2.9964 21.9516 -8.71079 -0.0 0.0 -0.0 9.46212 17.5342 -18.3672 2.65436 -20.2995 -62.3474 0.327938 9.22733 -0.026464 61.8185 1.93848 7.27311 -3.83251 -28.8669 9.40278 0.0 0.0 0.0 -18.162 29.8956 -4.43876 -24.4473 0.216402 3.71702 24.7501 1.23639 -3.31659 -27.1554 0.0 0.0 -0.0 0.0 -0.0 33.0326 30.0222 -15.0593 -19.0431 -0.305797 -2.89289 -5.86413 7.41499 -0.903773 -0.0363627 0.0 0.0 0.0 0.0 0.0 
2700.58937575 730.892 -1532.13172702 10.2124989252 60.2720023179 -7.69918751203 -3.02611 0.0872112 -0.331445 -3.02605 0.108125 -0.325224 -3.02664 0.189412 -0.285631 -3.02672 0.141925 -0.31196 -16.531 12.5708 5.39357 -16.9204 21.0864 9.64466 -0.0 0.0 -0.0 4.3419 18.9035 8.74678 -2.46071 -16.8309 60.6451 2.46903 -50.7225 1.17048 -83.1846 -8.22426 5.22555 -2.98171 22.6744 -8.22424 -0.0 0.0 -0.0 9.61776 16.6982 -18.7607 4.0786 -19.9881 -63.0222 0.35224 9.89806 -0.0305014 63.6633 2.1107 7.43529 -3.74271 -28.7336 8.99489 0.0 0.0 0.0 -17.9049 29.0773 -4.54165 -27.3208 0.137324 4.15088 22.4912 2.82818 -3.04232 -26.9651 0.0 0.0 -0.0 0.0 -0.0 31.4522 30.3094 -15.4703 -19.2151 -0.304151 -2.91923 -1.82836 5.55391 -0.276957 1.21518 -0.0 -0.0 0.0 0.0 0.0 
2700.73166998 730.892 -1532.37571273 10.1694260667 60.1347977649 -7.6495527138 -3.02611 0.0872112 -0.331445 -3.02605 0.108125 -0.325224 -3.02664 0.189412 -0.285631 -3.02672 0.141925 -0.31196 -16.531 12.5708 5.39357 -16.9204 21.0864 9.64466 -0.0 0.0 -0.0 4.3419 18.9035 8.74678 -2.46071 -16.8309 60.6451 2.46903 -50.7225 1.17048 -83.1846 -8.22426 5.22555 -2.98171 22.6744 -8.22424 -0.0 0.0 -0.0 9.61776 16.6982 -18.7607 4.0786 -19.9881 -63.0222 0.35224 9.89806 -0.0305014 63.6633 2.1107 7.43529 -3.74271 -28.7336 8.99489 0.0 0.0 0.0 -17.9049 29.0773 -4.54165 -27.3208 0.137324 4.15088 22.4912 2.82818 -3.04232 -26.9651 0.0 0.0 -0.0 0.0 -0.0 31.4522 30.3094 -15.4703 -19.2151 -0.304151 -2.91923 -1.82836 5.55391 -0.276957 1.21518 -0.0 -0.0 0.0 0.0 0.0 
2686.25417435 733.454 -1539.36686378 10.9822806918 61.8961896961 -9.02886326474 -3.05207 0.0503836 -0.0242592 -3.05207 0.0518251 -0.021004 -3.05209 0.0555173 -0.00669593 -3.05209 0.0537631 -0.0153798 -15.8065 12.9171 5.95884 -16.1496 21.3265 10.1439 -0.0 0.0 -0.0 4.09681 19.4248 8.37416 -3.57941 -17.0557 60.6 2.22484 -47.7748 0.985428 -82.9583 -8.19578 5.23015 -2.54744 22.7656 -5.64534 -0.0 0.0 -0.0 9.92075 16.7553 -19.4314 5.42428 -20.8784 -63.2719 0.356641 10.0192 -0.0312624 65.3288 2.27061 7.5769 -3.67184 -28.3576 8.83733 0.0 0.0 0.0 -18.3643 29.0017 -3.87148 -27.2306 0.140138 4.13732 21.0779 5.8991 -2.86398 -28.611 0.0 0.0 -0.0 0.0 -0.0 29.99 29.9523 -15.0566 -19.8649 -0.297222 -3.01869 -1.29945 3.68077 -0.195104 2.36974 -0.0 -0.0 0.0 0.0 0.0 
